# xmcd
#
# Track frame offsets: 
#        150
#        16705
#        37277
#        53880
#
# Disc length: 989 seconds
#
# Revision: 1
# Processed by: cddbd v1.5.2PL0 Copyright (c) Steve Scherf et al.
# Submitted via: ExactAudioCopyFreeDBPlugin 1.0
#
DISCID=2c03db04
DTITLE=氷川きよし - きよしのズンドコ節
DYEAR=2002
DGENRE=Country
TTITLE0=きよしのズンドコ節
TTITLE1=送恋譜
TTITLE2=きよしのズンドコ節(カラオケ)
TTITLE3=送恋譜(カラオケ)
EXTD=YEAR: 2002
EXTT0=
EXTT1=
EXTT2=
EXTT3=
PLAYORDER=
